# xmcd
#
# Track frame offsets:
#	150
#	15320
#	31412
#	44193
#	60967
#	78325
#	93543
#	111842
#	127120
#	140879
#	154929
#	171510
#	186109
#	200971
#	216959
#	233990
#	247947
#	266624
#	283077
#	300732
#
# Disc length: 4227 seconds
#
# Revision: 0
# Processed by: cddbd v1.5.2PL0 Copyright (c) Steve Scherf et al.
# Submitted via: EasyCDDAExtractor 2010.6.0.0
#
DISCID=30108114
DTITLE=Various Artist - 100 Hits - Dance Classics cd 4
DYEAR=2011
DGENRE=Dance
TTITLE0=Shy FX with T-Power feat. Di - Shake Ur Body
TTITLE1=Riva Starr feat. Nöze - I Was Drunk (DJ Sneak's Drunken Main Mix Edit)
TTITLE2=Gramophonedize - Why Don't You
TTITLE3=Audio Bullys - Face In A Cloud
TTITLE4=Hot Chip - Over And Over
TTITLE5=Shapeshifters - New Day
TTITLE6=Aurora - Ordinary World
TTITLE7=Fragma - Toca's Miracle
TTITLE8=James Doman - Everything's Gonna Be Alright
TTITLE9=Junior Vasquez - Get Your Hands Off My Man
TTITLE10=Qattara - Come With Me
TTITLE11=Perfect Phase - Horny Horns
TTITLE12=Bassheads - Who Can Make Me Feel Good?
TTITLE13=K-Klass - Let Me Show You
TTITLE14=Judy Cheeks - Reach (Brothers In Rhythm Radio Edit)
TTITLE15=Amira - My Desire (Dreem Teem Remix)
TTITLE16=Mantronix feat. Wondress - Take Your Time
TTITLE17=Soul II Soul feat. Caron Wheeler - Keep On Moving
TTITLE18=Lene Marlin - Sitting Down Here
TTITLE19=Dana Dawson - 3 Is Family
EXTD=
EXTT0=
EXTT1=
EXTT2=
EXTT3=
EXTT4=
EXTT5=
EXTT6=
EXTT7=
EXTT8=
EXTT9=
EXTT10=
EXTT11=
EXTT12=
EXTT13=
EXTT14=
EXTT15=
EXTT16=
EXTT17=
EXTT18=
EXTT19=
PLAYORDER=
